<svg xmlns="http://www.w3.org/2000/svg" viewBox="687 47 36 36" fill="none"><path d="M705 57.5V54.5C705 52.85 703.65 51.5 702 51.5H693C691.35 51.5 690 52.85 690 54.5V75.5C690 77.15 691.35 78.5 693 78.5H717C718.65 78.5 720 77.15 720 75.5V60.5C720 58.85 718.65 57.5 717 57.5H705ZM696 75.5H693V72.5H696V75.5ZM696 69.5H693V66.5H696V69.5ZM696 63.5H693V60.5H696V63.5ZM696 57.5H693V54.5H696V57.5ZM702 75.5H699V72.5H702V75.5ZM702 69.5H699V66.5H702V69.5ZM702 63.5H699V60.5H702V63.5ZM702 57.5H699V54.5H702V57.5ZM715.5 75.5H705V72.5H708V69.5H705V66.5H708V63.5H705V60.5H715.5C716.325 60.5 717 61.175 717 62V74C717 74.825 716.325 75.5 715.5 75.5ZM714 63.5H711V66.5H714V63.5ZM714 69.5H711V72.5H714V69.5Z" fill="#242528"/></svg>
