<svg xmlns="http://www.w3.org/2000/svg" viewBox="1117 80 169 42" fill="none">
<path d="M1167.86 109.353H1179.81V105.753H1172.11V92.1931H1167.86V109.353Z" fill="#82868E"/>
<path d="M1186.89 106.953C1185.19 106.953 1184.3 105.465 1184.3 103.233C1184.3 101.001 1185.19 99.4892 1186.89 99.4892C1188.6 99.4892 1189.51 101.001 1189.51 103.233C1189.51 105.465 1188.6 106.953 1186.89 106.953ZM1186.92 109.737C1190.88 109.737 1193.47 106.929 1193.47 103.233C1193.47 99.5372 1190.88 96.7292 1186.92 96.7292C1182.98 96.7292 1180.34 99.5372 1180.34 103.233C1180.34 106.929 1182.98 109.737 1186.92 109.737Z" fill="#82868E"/>
<path d="M1200.32 113.601C1202.15 113.601 1203.76 113.193 1204.84 112.233C1205.82 111.345 1206.47 110.001 1206.47 108.153V97.0651H1202.72V98.3851H1202.68C1201.96 97.3531 1200.85 96.7051 1199.22 96.7051C1196.17 96.7051 1194.06 99.2491 1194.06 102.849C1194.06 106.617 1196.63 108.681 1199.39 108.681C1200.88 108.681 1201.81 108.081 1202.53 107.265H1202.63V108.489C1202.63 109.977 1201.93 110.841 1200.28 110.841C1198.98 110.841 1198.33 110.289 1198.12 109.641H1194.32C1194.71 112.209 1196.94 113.601 1200.32 113.601ZM1200.3 105.777C1198.84 105.777 1197.88 104.577 1197.88 102.729C1197.88 100.857 1198.84 99.6571 1200.3 99.6571C1201.93 99.6571 1202.8 101.049 1202.8 102.705C1202.8 104.433 1202 105.777 1200.3 105.777Z" fill="#82868E"/>
<path d="M1214.17 106.953C1212.46 106.953 1211.57 105.465 1211.57 103.233C1211.57 101.001 1212.46 99.4892 1214.17 99.4892C1215.87 99.4892 1216.78 101.001 1216.78 103.233C1216.78 105.465 1215.87 106.953 1214.17 106.953ZM1214.19 109.737C1218.15 109.737 1220.74 106.929 1220.74 103.233C1220.74 99.5372 1218.15 96.7292 1214.19 96.7292C1210.25 96.7292 1207.61 99.5372 1207.61 103.233C1207.61 106.929 1210.25 109.737 1214.19 109.737Z" fill="#82868E"/>
<path d="M1221.88 109.353H1225.8V97.0651H1221.88V109.353ZM1221.88 95.3611H1225.8V92.1931H1221.88V95.3611Z" fill="#82868E"/>
<path d="M1227.49 113.409H1231.41V108.081H1231.45C1232.22 109.113 1233.35 109.737 1234.93 109.737C1238.15 109.737 1240.29 107.193 1240.29 103.209C1240.29 99.5131 1238.29 96.7051 1235.03 96.7051C1233.35 96.7051 1232.15 97.4491 1231.31 98.5531H1231.24V97.0651H1227.49V113.409ZM1233.93 106.713C1232.25 106.713 1231.29 105.345 1231.29 103.353C1231.29 101.361 1232.15 99.8491 1233.85 99.8491C1235.53 99.8491 1236.33 101.241 1236.33 103.353C1236.33 105.441 1235.41 106.713 1233.93 106.713Z" fill="#82868E"/>
<path d="M1246.66 109.737C1249.87 109.737 1252.25 108.345 1252.25 105.657C1252.25 102.513 1249.7 101.961 1247.54 101.601C1245.98 101.313 1244.59 101.193 1244.59 100.329C1244.59 99.5611 1245.34 99.2011 1246.3 99.2011C1247.38 99.2011 1248.12 99.5371 1248.26 100.641H1251.86C1251.67 98.2171 1249.8 96.7051 1246.32 96.7051C1243.42 96.7051 1241.02 98.0491 1241.02 100.641C1241.02 103.521 1243.3 104.097 1245.43 104.457C1247.06 104.745 1248.55 104.865 1248.55 105.969C1248.55 106.761 1247.81 107.193 1246.63 107.193C1245.34 107.193 1244.52 106.593 1244.38 105.369H1240.68C1240.8 108.081 1243.06 109.737 1246.66 109.737Z" fill="#82868E"/>
<path d="M1257.56 109.713C1259.27 109.713 1260.35 109.041 1261.23 107.841H1261.31V109.353H1265.05V97.0652H1261.14V103.929C1261.14 105.393 1260.32 106.401 1258.98 106.401C1257.73 106.401 1257.13 105.657 1257.13 104.313V97.0652H1253.24V105.129C1253.24 107.865 1254.73 109.713 1257.56 109.713Z" fill="#82868E"/>
<path d="M1266.75 109.353H1270.66V102.465C1270.66 101.001 1271.38 99.9691 1272.61 99.9691C1273.78 99.9691 1274.33 100.737 1274.33 102.057V109.353H1278.25V102.465C1278.25 101.001 1278.94 99.9691 1280.19 99.9691C1281.37 99.9691 1281.92 100.737 1281.92 102.057V109.353H1285.83V101.361C1285.83 98.6011 1284.44 96.7051 1281.65 96.7051C1280.07 96.7051 1278.75 97.3771 1277.79 98.8651H1277.74C1277.12 97.5451 1275.89 96.7051 1274.29 96.7051C1272.51 96.7051 1271.33 97.5451 1270.57 98.8171H1270.49V97.0651H1266.75V109.353Z" fill="#82868E"/>
<path fill-rule="evenodd" clip-rule="evenodd" d="M1137.68 80.9619C1148.95 80.9619 1158.08 90.0914 1158.08 101.353C1158.08 112.615 1148.95 121.745 1137.68 121.745C1126.42 121.745 1117.29 112.615 1117.29 101.353C1117.29 90.0914 1126.42 80.9619 1137.68 80.9619ZM1157.29 101.353C1157.29 90.5237 1148.51 81.7445 1137.68 81.7445C1136.81 81.7445 1135.95 81.8017 1135.11 81.9124C1135.65 81.8647 1136.2 81.8404 1136.76 81.8404C1147.11 81.8404 1155.5 90.2293 1155.5 100.577C1155.5 110.926 1147.11 119.314 1136.76 119.314C1126.96 119.314 1118.92 111.796 1118.09 102.213C1118.54 112.644 1127.14 120.962 1137.68 120.962C1148.51 120.962 1157.29 112.183 1157.29 101.353ZM1154.72 100.577C1154.72 90.6615 1146.68 82.623 1136.76 82.623C1135.96 82.623 1135.16 82.676 1134.39 82.7787C1134.86 82.7385 1135.35 82.7179 1135.84 82.7179C1145.27 82.7179 1152.92 90.3662 1152.92 99.8007C1152.92 109.235 1145.27 116.883 1135.84 116.883C1126.92 116.883 1119.59 110.046 1118.82 101.326C1119.21 110.895 1127.1 118.532 1136.76 118.532C1146.68 118.532 1154.72 110.493 1154.72 100.577ZM1135.84 83.5006C1144.84 83.5006 1152.14 90.7984 1152.14 99.8007C1152.14 108.803 1144.84 116.101 1135.84 116.101C1127.04 116.101 1119.88 109.137 1119.55 100.423C1120.26 108.288 1126.86 114.452 1134.91 114.452C1143.43 114.452 1150.34 107.545 1150.34 99.0249C1150.34 90.5045 1143.43 83.5974 1134.91 83.5974C1134.47 83.5974 1134.04 83.6159 1133.61 83.6521C1134.33 83.5522 1135.08 83.5006 1135.84 83.5006ZM1149.56 99.0249C1149.56 90.9368 1143 84.38 1134.91 84.38C1134.23 84.38 1133.56 84.4268 1132.9 84.5174C1133.26 84.4893 1133.62 84.4749 1133.99 84.4749C1141.6 84.4749 1147.76 90.6414 1147.76 98.2482C1147.76 105.855 1141.6 112.021 1133.99 112.021C1126.83 112.021 1120.95 106.558 1120.28 99.5736C1120.57 107.407 1127.01 113.67 1134.91 113.67C1143 113.67 1149.56 107.113 1149.56 99.0249ZM1133.99 85.2576C1141.16 85.2576 1146.98 91.0737 1146.98 98.2482C1146.98 105.423 1141.16 111.239 1133.99 111.239C1126.96 111.239 1121.23 105.65 1121.01 98.6706C1121.61 104.801 1126.78 109.59 1133.07 109.59C1139.76 109.59 1145.18 104.164 1145.18 97.4714C1145.18 90.7783 1139.76 85.3524 1133.07 85.3524C1132.76 85.3524 1132.45 85.3639 1132.15 85.3863C1132.75 85.3014 1133.37 85.2576 1133.99 85.2576ZM1144.4 97.4714C1144.4 91.2105 1139.33 86.1351 1133.07 86.1351C1132.49 86.1351 1131.93 86.1774 1131.38 86.259C1131.63 86.241 1131.89 86.2319 1132.14 86.2319C1137.92 86.2319 1142.61 90.9167 1142.61 96.6956C1142.61 102.475 1137.92 107.159 1132.14 107.159C1126.73 107.159 1122.27 103.046 1121.73 97.773C1121.89 103.894 1126.91 108.808 1133.07 108.808C1139.33 108.808 1144.4 103.732 1144.4 97.4714ZM1132.14 87.0145C1137.49 87.0145 1141.82 91.3489 1141.82 96.6956C1141.82 102.042 1137.49 106.377 1132.14 106.377C1126.86 106.377 1122.57 102.152 1122.46 96.8993C1122.95 101.303 1126.68 104.728 1131.22 104.728C1136.08 104.728 1140.03 100.784 1140.03 95.9189C1140.03 91.0536 1136.08 87.1094 1131.22 87.1094C1131.03 87.1094 1130.85 87.1152 1130.66 87.1266C1131.15 87.0528 1131.64 87.0145 1132.14 87.0145ZM1139.25 95.9189C1139.25 91.4858 1135.65 87.8921 1131.22 87.8921C1130.77 87.8921 1130.34 87.9283 1129.91 87.998C1130.04 87.9913 1130.17 87.9879 1130.29 87.9879C1134.25 87.9879 1137.45 91.1914 1137.45 95.1431C1137.45 99.0948 1134.25 102.298 1130.29 102.298C1126.64 102.298 1123.63 99.5593 1123.19 96.0225C1123.25 100.408 1126.82 103.946 1131.22 103.946C1135.65 103.946 1139.25 100.352 1139.25 95.9189ZM1130.29 88.7706C1133.81 88.7706 1136.67 91.6236 1136.67 95.1431C1136.67 98.6626 1133.81 101.516 1130.29 101.516C1126.77 101.516 1123.92 98.6626 1123.92 95.1431C1123.92 95.1347 1123.92 95.1262 1123.92 95.1178C1124.29 97.7998 1126.59 99.8663 1129.37 99.8663C1132.41 99.8663 1134.87 97.4039 1134.87 94.3664C1134.87 91.3288 1132.41 88.8664 1129.37 88.8664C1129.3 88.8664 1129.23 88.8677 1129.17 88.8702C1129.53 88.8047 1129.91 88.7706 1130.29 88.7706ZM1134.09 94.3664C1134.09 91.7611 1131.98 89.6491 1129.37 89.6491C1126.77 89.6491 1124.65 91.7611 1124.65 94.3664C1124.65 96.9716 1126.77 99.0836 1129.37 99.0836C1131.98 99.0836 1134.09 96.9716 1134.09 94.3664Z" fill="#82868E"/>
</svg>
